HIERARCHY
ROOT Hips
{
	OFFSET 0.000000 0.000000 0.000000
	CHANNELS 6 Xposition Yposition Zposition Xrotation Yrotation Zrotation
	JOINT LeftUpLeg_virtual
	{
		OFFSET 0.000000 0.000000 0.000000
		CHANNELS 3 Xrotation Yrotation Zrotation
		JOINT LeftUpLeg
		{
			OFFSET 11.394100 -6.187798 -0.413800
			CHANNELS 3 Xrotation Yrotation Zrotation
			JOINT LeftLeg
			{
				OFFSET 0.430247 -32.302673 3.732800
				CHANNELS 3 Xrotation Yrotation Zrotation
				JOINT LeftFoot
				{
					OFFSET -0.430247 -48.264931 -6.423300
					CHANNELS 3 Xrotation Yrotation Zrotation
					JOINT LeftToeBase
					{
						OFFSET 4.230900 -16.068199 23.438400
						CHANNELS 3 Xrotation Yrotation Zrotation
						JOINT LeftToe_End
						{
							OFFSET 4.510700 0.695400 19.974600
							CHANNELS 3 Xrotation Yrotation Zrotation
							End Site
							{
								OFFSET 0 0 0
							}
						}
					}
				}
			}
		}
	}
	JOINT RightUpLeg_virtual
	{
		OFFSET 0.000000 0.000000 0.000000
		CHANNELS 3 Xrotation Yrotation Zrotation
		JOINT RightUpLeg
		{
			OFFSET -11.333700 -6.187798 -0.413800
			CHANNELS 3 Xrotation Yrotation Zrotation
			JOINT RightLeg
			{
				OFFSET -0.430392 -32.302628 3.733000
				CHANNELS 3 Xrotation Yrotation Zrotation
				JOINT RightFoot
				{
					OFFSET 0.430392 -48.264973 -6.423500
					CHANNELS 3 Xrotation Yrotation Zrotation
					JOINT RightToeBase
					{
						OFFSET -4.230900 -16.068199 23.438400
						CHANNELS 3 Xrotation Yrotation Zrotation
						JOINT RightToe_End
						{
							OFFSET -4.510700 0.695400 19.974600
							CHANNELS 3 Xrotation Yrotation Zrotation
							End Site
							{
								OFFSET 0 0 0
							}
						}
					}
				}
			}
		}
	}
	JOINT Spine_virtual
	{
		OFFSET 0.000000 0.000000 0.000000
		CHANNELS 3 Xrotation Yrotation Zrotation
		JOINT Spine
		{
			OFFSET -0.002400 12.777504 0.315300
			CHANNELS 3 Xrotation Yrotation Zrotation
			JOINT Spine1
			{
				OFFSET -0.002067 5.816869 0.032633
				CHANNELS 3 Xrotation Yrotation Zrotation
				JOINT Spine1_split
				{
					OFFSET -0.002067 5.816869 0.032633
					CHANNELS 3 Xrotation Yrotation Zrotation
					JOINT Spine2
					{
						OFFSET -0.002067 5.816869 0.032633
						CHANNELS 3 Xrotation Yrotation Zrotation
						JOINT Neck_virtual
						{
							OFFSET 0.000000 0.000000 0.000000
							CHANNELS 3 Xrotation Yrotation Zrotation
							JOINT Neck
							{
								OFFSET -0.003700 21.199493 -0.826900
								CHANNELS 3 Xrotation Yrotation Zrotation
								JOINT Head
								{
									OFFSET 0.000000 20.442200 4.834800
									CHANNELS 3 Xrotation Yrotation Zrotation
									JOINT HeadTop_End
									{
										OFFSET 0.000000 34.668396 4.968400
										CHANNELS 3 Xrotation Yrotation Zrotation
										End Site
										{
											OFFSET 0 0 0
										}
									}
								}
							}
						}
						JOINT LeftShoulder_virtual
						{
							OFFSET 0.000000 0.000000 0.000000
							CHANNELS 3 Xrotation Yrotation Zrotation
							JOINT LeftShoulder
							{
								OFFSET 3.288150 8.794197 -1.372250
								CHANNELS 3 Xrotation Yrotation Zrotation
								JOINT LeftShoulder_split
								{
									OFFSET 3.288150 8.794197 -1.372250
									CHANNELS 3 Xrotation Yrotation Zrotation
									JOINT LeftArm
									{
										OFFSET 11.953299 -2.279007 -0.146200
										CHANNELS 3 Xrotation Yrotation Zrotation
										JOINT LeftForeArm
										{
											OFFSET 18.448900 0.000000 0.000000
											CHANNELS 3 Xrotation Yrotation Zrotation
											JOINT LeftHand
											{
												OFFSET 29.527798 0.000000 0.000000
												CHANNELS 3 Xrotation Yrotation Zrotation
												End Site
												{
													OFFSET 0 0 0
												}
											}
										}
									}
								}
							}
						}
						JOINT RightShoulder_virtual
						{
							OFFSET 0.000000 0.000000 0.000000
							CHANNELS 3 Xrotation Yrotation Zrotation
							JOINT RightShoulder
							{
								OFFSET -3.249400 8.794197 -1.372250
								CHANNELS 3 Xrotation Yrotation Zrotation
								JOINT RightShoulder_split
								{
									OFFSET -3.249400 8.794197 -1.372250
									CHANNELS 3 Xrotation Yrotation Zrotation
									JOINT RightArm
									{
										OFFSET -11.953299 -2.279007 -0.146200
										CHANNELS 3 Xrotation Yrotation Zrotation
										JOINT RightForeArm
										{
											OFFSET -18.448900 0.000000 0.000000
											CHANNELS 3 Xrotation Yrotation Zrotation
											JOINT RightHand
											{
												OFFSET -29.527802 0.000000 0.000000
												CHANNELS 3 Xrotation Yrotation Zrotation
												End Site
												{
													OFFSET 0 0 0
												}
											}
										}
									}
								}
							}
						}
					}
				}
			}
		}
	}
}
MOTION
Frames: 11
Frame Time: 0.03333333
16.982101 63.611221 -50.034065 0.000000 0.000000 0.000000 39.546228 -18.380370 12.923795 -67.983195 -13.430009 -0.929250 83.437427 -1.278268 -0.927678 4.353607 2.408387 -15.107975 -46.856068 5.108343 -23.693655 0.000000 0.000000 0.000000 41.262348 -22.280174 13.400395 -85.879568 -11.318977 -17.356773 100.198090 -9.822543 4.094063 -31.432432 -23.690878 9.894019 -21.235422 13.915985 -17.822644 0.000000 0.000000 0.000000 43.911450 -16.391320 13.639425 36.016335 8.221763 4.744266 2.170251 1.234989 0.847872 0.093373 -0.122503 0.176468 0.000000 0.000000 0.000000 4.417602 2.785437 1.814866 -14.314103 2.825054 7.654240 -24.733262 -30.647001 -25.580945 0.000000 0.000000 0.000000 4.395846 1.436839 0.362573 3.045560 -22.464134 -0.265979 3.467944 2.170940 -6.718003 -25.428583 -19.896807 -48.654839 -9.491578 -32.626270 0.478670 0.000000 0.000000 0.000000 6.042613 2.102568 1.951686 2.026672 22.444476 2.523576 0.333822 -0.165795 -0.671043 -60.163380 38.732305 38.443064 -33.829572 15.158237 14.492958 0.000000 0.000000 0.000000 
17.270411 63.970684 -49.407555 0.000000 0.000000 0.000000 38.742657 -19.867994 13.399764 -72.170586 -14.505362 -1.662283 86.792853 -0.865391 -0.875111 7.284736 3.145132 -15.966238 -44.975529 5.366260 -24.448187 0.000000 0.000000 0.000000 40.457038 -23.975777 13.940824 -84.195578 -11.953785 -16.667217 99.233127 -9.666535 3.381290 -31.415455 -24.420334 10.659040 -21.226237 13.765674 -16.619520 0.000000 0.000000 0.000000 43.220317 -17.845623 13.966727 36.043140 8.292587 4.315313 2.579845 1.177136 0.554311 0.107001 -0.190615 0.197275 0.000000 0.000000 0.000000 4.644845 2.732283 1.515867 -14.212057 3.009275 7.551808 -24.865970 -30.087745 -24.793180 0.000000 0.000000 0.000000 4.655342 1.358793 0.001552 3.086382 -23.127844 -0.512461 2.550993 2.116445 -6.902593 -23.102657 -17.576612 -47.591758 -11.456970 -35.579384 -0.853631 0.000000 0.000000 0.000000 6.215933 2.027551 1.679603 1.931998 21.757411 2.373367 -0.178707 -0.272783 -0.378936 -57.748983 38.739119 38.759104 -34.537330 16.579094 16.047611 0.000000 0.000000 0.000000 
17.521893 64.377663 -48.520096 0.000000 0.000000 0.000000 38.034875 -21.079029 13.916288 -76.235826 -15.328362 -2.255957 89.629014 -0.640281 -0.548119 9.972692 3.486829 -16.979265 -43.673281 5.500069 -24.857512 0.000000 0.000000 0.000000 39.874296 -25.573630 14.691308 -82.530692 -12.594078 -16.063288 98.148760 -9.403415 2.513087 -31.714064 -25.218440 11.421299 -20.574502 13.628109 -15.619864 0.000000 0.000000 0.000000 42.684103 -19.037277 14.374587 35.959071 8.353591 3.861532 3.020251 1.178535 0.266245 0.103876 -0.277484 0.213958 0.000000 0.000000 0.000000 5.010364 2.749619 1.202622 -14.117187 3.319892 7.442091 -25.402455 -29.122701 -24.007719 0.000000 0.000000 0.000000 4.958342 1.338900 -0.341672 3.059481 -23.833680 -0.860379 1.687459 1.922078 -6.798886 -21.249302 -15.411255 -46.143085 -13.096905 -38.145141 -2.084130 0.000000 0.000000 0.000000 6.471494 2.005572 1.402299 1.950782 21.003627 1.918553 -0.737599 -0.447241 -0.195581 -55.048866 39.134122 38.475313 -35.331134 18.413084 17.961765 0.000000 0.000000 0.000000 
17.744360 64.862900 -47.391624 0.000000 0.000000 0.000000 37.458315 -21.993892 14.438388 -80.279817 -15.873136 -2.465609 92.012859 -0.627446 -0.016201 12.288583 3.553521 -18.027875 -42.421837 5.481389 -25.046107 0.000000 0.000000 0.000000 39.572371 -26.964453 15.569770 -80.838847 -13.197455 -15.559704 96.902469 -8.950285 1.471932 -32.049829 -26.074932 12.475326 -19.550204 13.517545 -14.768710 0.000000 0.000000 0.000000 42.229786 -19.917393 14.837688 35.769226 8.375946 3.428082 3.475119 1.238865 -0.008467 0.105814 -0.377693 0.211195 0.000000 0.000000 0.000000 5.482643 2.830249 0.890482 -13.971865 3.713986 7.338006 -26.415471 -27.832758 -23.296409 0.000000 0.000000 0.000000 5.274598 1.377041 -0.656117 2.984678 -24.560995 -1.238154 0.919557 1.719895 -6.555018 -19.854245 -13.505893 -44.292281 -14.298547 -40.346054 -3.095519 0.000000 0.000000 0.000000 6.786478 2.031461 1.129301 2.078106 20.166434 1.184922 -1.417364 -0.689258 0.031245 -52.362044 39.907914 37.713357 -36.103280 20.266870 20.031864 0.000000 0.000000 0.000000 
17.960648 65.530159 -45.986694 0.000000 0.000000 0.000000 37.120459 -22.705355 14.982816 -84.331014 -16.311556 -2.225074 93.906078 -0.785281 0.589456 14.325683 3.482793 -19.082312 -40.837428 5.332453 -25.093601 0.000000 0.000000 0.000000 39.457310 -28.004424 16.462370 -78.870674 -13.725923 -15.078126 95.408891 -8.328762 0.285424 -32.447305 -27.072657 13.817979 -18.159713 13.352121 -13.970579 0.000000 0.000000 0.000000 41.821525 -20.550873 15.362147 35.538383 8.322232 3.036116 3.915955 1.330186 -0.261537 0.112099 -0.458923 0.201242 0.000000 0.000000 0.000000 6.020174 2.936575 0.580637 -13.751808 4.158226 7.259759 -27.877185 -26.371524 -22.666244 0.000000 0.000000 0.000000 5.591609 1.445876 -0.924650 2.901459 -25.284368 -1.546049 0.388060 1.596877 -6.182998 -18.862462 -11.933410 -42.093773 -15.004795 -42.386078 -3.849385 0.000000 0.000000 0.000000 7.116271 2.070442 0.872151 2.266510 19.177250 0.187009 -2.002665 -0.895003 0.316367 -50.177896 40.978283 36.874883 -36.758415 21.948786 22.077685 0.000000 0.000000 0.000000 
18.169121 66.403519 -44.326065 0.000000 0.000000 0.000000 36.950716 -23.262026 15.492534 -88.370374 -16.783527 -1.578059 95.358224 -0.980547 1.206391 16.196236 3.566344 -20.125888 -38.748852 5.040818 -24.953253 0.000000 0.000000 0.000000 39.356127 -28.509247 17.140913 -76.306293 -14.187940 -14.514963 93.585442 -7.643888 -0.960433 -33.285370 -28.312335 15.050453 -16.362983 13.065784 -13.090875 0.000000 0.000000 0.000000 41.340591 -20.995091 15.890853 35.343552 8.131800 2.730562 4.317442 1.409722 -0.484800 0.133765 -0.505738 0.198478 0.000000 0.000000 0.000000 6.584313 3.020433 0.283117 -13.412501 4.608768 7.224590 -29.623794 -24.961041 -22.071681 0.000000 0.000000 0.000000 5.897975 1.509471 -1.137109 2.828807 -25.956141 -1.727988 0.131169 1.568589 -5.748802 -18.320951 -10.849745 -39.658674 -15.217914 -44.445117 -4.329231 0.000000 0.000000 0.000000 7.426219 2.083907 0.629936 2.466942 18.019120 -1.049446 -2.449066 -0.962718 0.586148 -49.112024 42.089804 36.528822 -37.241576 23.386563 23.971307 0.000000 0.000000 0.000000 
18.305046 67.492340 -42.414642 0.000000 0.000000 0.000000 36.910530 -23.736711 15.987803 -92.020700 -17.242732 -0.617404 96.192723 -0.982953 1.742363 17.676634 4.066089 -20.941107 -36.010629 4.530531 -24.581938 0.000000 0.000000 0.000000 39.123942 -28.548628 17.540848 -72.959835 -14.631471 -13.846629 91.393853 -7.037450 -2.119811 -34.786051 -29.805303 15.736833 -14.338457 12.647857 -11.995545 0.000000 0.000000 0.000000 40.762367 -21.350970 16.409272 35.255326 7.749031 2.517450 4.681918 1.443657 -0.693174 0.141880 -0.506112 0.210829 0.000000 0.000000 0.000000 7.122838 3.048222 -0.004139 -12.868749 5.038809 7.225031 -31.353502 -23.892138 -21.404840 0.000000 0.000000 0.000000 6.198838 1.529514 -1.302230 2.777116 -26.506566 -1.752650 -0.028075 1.581252 -5.466997 -18.221584 -10.327265 -37.080817 -14.922114 -46.514138 -4.486832 0.000000 0.000000 0.000000 7.695093 2.038576 0.383703 2.623173 16.691280 -2.517769 -2.691408 -0.796554 0.810467 -49.442131 43.073441 37.079953 -37.491953 24.642955 25.611698 0.000000 0.000000 0.000000 
18.379578 68.787407 -40.266342 0.000000 0.000000 0.000000 36.795643 -24.077793 16.438551 -95.040634 -17.574451 0.585922 96.073099 -0.788938 2.294459 18.687030 4.885266 -21.661195 -33.044062 3.772984 -23.651734 0.000000 0.000000 0.000000 38.631994 -28.207264 17.690323 -68.880006 -15.015824 -13.145297 88.783478 -6.530952 -3.128100 -36.849659 -31.411504 15.697556 -12.184240 12.142744 -10.712650 0.000000 0.000000 0.000000 40.084297 -21.635054 16.919058 35.323191 7.124700 2.379042 5.004113 1.417133 -0.903441 0.127327 -0.478135 0.206986 0.000000 0.000000 0.000000 7.628886 3.010234 -0.295044 -12.104969 5.427175 7.225254 -32.909320 -23.357280 -20.628452 0.000000 0.000000 0.000000 6.502479 1.493550 -1.446513 2.753226 -26.890702 -1.616919 -0.132911 1.562007 -5.250375 -18.648291 -10.486757 -34.406197 -14.061418 -48.260348 -4.215929 0.000000 0.000000 0.000000 7.929280 1.930865 0.122176 2.714609 15.266622 -4.226248 -2.700773 -0.479586 0.692287 -51.186544 43.652132 38.629071 -37.504972 25.815887 26.960681 0.000000 0.000000 0.000000 
18.285681 70.268364 -37.971573 0.000000 0.000000 0.000000 36.437283 -24.284657 16.884123 -97.125024 -17.482510 2.034010 94.496207 -0.371865 2.947006 18.977373 5.844122 -22.149661 -30.112842 2.688256 -21.907357 0.000000 0.000000 0.000000 37.844879 -27.678640 17.729394 -64.393999 -15.244048 -12.560573 85.625867 -6.008878 -4.013411 -38.969832 -32.875688 15.319013 -10.068061 11.628043 -9.404128 0.000000 0.000000 0.000000 39.274216 -21.808217 17.380953 35.573626 6.254581 2.276759 5.311013 1.347212 -1.138462 0.102466 -0.460264 0.194250 0.000000 0.000000 0.000000 8.073857 2.926311 -0.585800 -11.090599 5.748540 7.167059 -34.117819 -23.457632 -19.721183 0.000000 0.000000 0.000000 6.822267 1.400068 -1.608833 2.767113 -27.056415 -1.295271 -0.243259 1.396890 -5.030030 -19.559719 -11.405398 -31.588556 -12.600472 -49.148638 -3.384880 0.000000 0.000000 0.000000 8.163026 1.785110 -0.165389 2.763692 13.928795 -6.163546 -2.425027 -0.103490 0.472562 -53.844068 43.647450 40.760339 -37.187033 26.859039 27.891066 0.000000 0.000000 0.000000 
18.036293 71.928421 -35.599037 0.000000 0.000000 0.000000 35.798831 -24.436629 17.391060 -98.235121 -16.828430 3.606680 91.035090 -0.024153 3.896089 18.939913 6.372829 -22.837477 -27.575352 1.322576 -19.074196 0.000000 0.000000 0.000000 36.891843 -27.295861 17.944048 -59.891026 -15.199816 -12.234683 81.973041 -5.321642 -4.833578 -40.555006 -34.026698 15.106942 -8.036202 11.168065 -8.312177 0.000000 0.000000 0.000000 38.368960 -21.920153 17.880418 35.983438 5.198113 2.145353 5.636881 1.261029 -1.399845 0.087741 -0.448081 0.165121 0.000000 0.000000 0.000000 8.435138 2.828509 -0.865704 -9.864033 5.980955 7.010309 -34.888890 -24.168129 -18.705935 0.000000 0.000000 0.000000 7.167208 1.270023 -1.808612 2.818140 -26.985616 -0.845573 -0.406787 1.148045 -4.695577 -20.859756 -13.046109 -28.612999 -10.634598 -48.737969 -2.011248 0.000000 0.000000 0.000000 8.416614 1.635851 -0.465027 2.793003 12.844033 -8.259613 -1.952540 0.301188 0.246720 -56.613963 43.161673 42.736050 -36.514167 27.742864 28.316402 0.000000 0.000000 0.000000 
17.607531 73.678940 -33.200752 0.000000 0.000000 0.000000 34.921217 -24.639026 18.033417 -98.574356 -15.648585 5.240584 85.543680 -0.162324 5.303522 19.098365 6.120925 -24.171088 -25.334025 -0.198867 -15.159610 0.000000 0.000000 0.000000 35.906448 -27.235822 18.482058 -55.683076 -14.862695 -12.231698 78.046263 -4.340984 -5.618386 -41.296075 -34.785764 15.413754 -6.071584 10.826836 -7.671318 0.000000 0.000000 0.000000 37.317906 -22.030306 18.446162 36.497307 4.056360 1.953327 5.983355 1.183883 -1.658037 0.084339 -0.477072 0.119117 0.000000 0.000000 0.000000 8.721601 2.746967 -1.108502 -8.506210 6.106769 6.742247 -35.256344 -25.316699 -17.664285 0.000000 0.000000 0.000000 7.534799 1.133885 -2.027585 2.902715 -26.670024 -0.313152 -0.454602 0.931375 -4.140700 -22.272236 -15.380917 -25.524642 -8.419224 -47.061602 -0.300713 0.000000 0.000000 0.000000 8.712932 1.521909 -0.746527 2.829965 12.183288 -10.416992 -1.254587 0.741816 0.225416 -58.978567 42.404454 43.907547 -35.607702 28.496314 28.295703 0.000000 0.000000 0.000000 
